<?xml version="1.0" encoding="UTF-8"?><svg xmlns="http://www.w3.org/2000/svg" viewBox="0 0 166.93 26.28" fill="#FFF" class="logo-icon"><g><path d="M0,.54H6.77c4.39,0,7.16,2.81,7.16,6.8a5.41,5.41,0,0,1-2.63,5.08,6.15,6.15,0,0,1,3.67,6c0,4.47-3.24,7.35-7.73,7.35H0ZM4.1,4.32v6.73H6.52c2.15,0,3.23-1.3,3.23-3.38S8.67,4.32,6.52,4.32Zm0,10.62v6.87H7a3.34,3.34,0,0,0,3.67-3.42A3.34,3.34,0,0,0,7,14.94Z" /><path d="M19.76,25.74V.54h12.6V4.32H23.87v6.41h8.49v3.74H23.87V22h8.49v3.75Z" /><path d="M57.6,25.74H53.21l-3-8.79H42.7l-3.06,8.79h-4.4L44.42.54h4.29ZM44,13.17h5L46.51,5.94Z" /><path d="M67.82,4.32V25.74h-4.1V4.32H57V.54H74.52V4.32Z" /><path d="M90.32,6.62C90.32,3,88,1,84.92,1a5.4,5.4,0,0,0-5.61,5.32c0,2.88,1.76,4.4,5,5.26l1.59.43c4.61,1.26,6.91,2.81,6.91,7,0,4.54-3.67,7.28-7.85,7.28s-7.81-2.88-7.81-8.07h1.08c0,4.5,3,7.06,6.73,7.06,3.93,0,6.77-2.48,6.77-6.27,0-2.73-1-4.71-6-6L84,12.6c-3.75-1-5.76-3-5.76-6.27A6.47,6.47,0,0,1,84.92,0c3.82,0,6.48,2.41,6.48,6.62Z" /><path d="M114.37,25.74h-1.12l-3.74-10.48H100l-3.7,10.48H95.22l9-25.2h1.08Zm-14-11.49h8.75L104.79,2Z" /><path d="M124.31,24.26,132.41.54h1.11l-8.67,25.2h-1.08L115.09.54h1.12Z" /><path d="M138.46,25.74V.54h10.18v1h-9.18v10h9.18v1h-9.18V24.73h9.18v1Z" /><path d="M157.25,13.46l9.68,12.28h-1.37L155.7,13.1V25.74h-1V.54H160c4.21,0,6.73,2.63,6.73,6.48s-2.52,6.44-6.73,6.44ZM155.7,1.55V12.49H160c3.6,0,5.76-2.23,5.76-5.47S163.55,1.55,160,1.55Z" /></g></svg>