<svg xmlns="http://www.w3.org/2000/svg" viewBox="0 0 256 256"><defs><filter id="a"><feGaussianBlur in="SourceAlpha" stdDeviation="3" result="b"/><feOffset dy="3"/><feComposite in2="SourceAlpha" operator="arithmetic" k2="-1" k3="1" result="s"/><feComposite in2="SourceGraphic" result="a"/><feOffset in="b" dy="-3"/><feComposite in2="SourceAlpha" operator="arithmetic" k2="-1" k3="1" result="s"/><feComposite in2="a"/></filter></defs><path filter="url(#a)" d="M8.1 142.5c-8-8-8-21 0-29L113.5 8.1c8-8 21-8 29 0l105.4 105.4c8 8 8 21 0 29L142.5 247.9c-8 8-21 8-29 0L8.1 142.5" fill="#ff008f"/><path d="M135.8 140.3 118.7 202c-1.8 6.3 6 10.9 10.7 6.2l78.9-78.9c4.6-4.6.1-12.4-6.2-10.7l-61.8 17.1a6.7 6.7 0 0 0-4.5 4.6z" fill="#fff"/></svg>