<svg xmlns="http://www.w3.org/2000/svg" viewBox="0 0 268.7 253.9"><g><ellipse transform="matrix(0.1602 -0.9871 0.9871 0.1602 -12.4699 239.2034)" style="fill:#EC008E;" cx="134.3" cy="126.9" rx="40" ry="40"/><radialGradient id="SVGID_1_" cx="207.8351" cy="210.4301" r="302.3756" fx="167.6685" fy="210.4301" gradientTransform="matrix(1 0 0 -1 0 256)" gradientUnits="userSpaceOnUse"><stop offset="0.2" style="stop-color:#D90F41"/><stop offset="0.23" style="stop-color:#DE0B54"/><stop offset="0.3" style="stop-color:#E4066D"/><stop offset="0.36" style="stop-color:#E9037E"/><stop offset="0.43" style="stop-color:#EB0189"/><stop offset="0.51" style="stop-color:#EC008C"/><stop offset="0.57" style="stop-color:#E9028D"/><stop offset="0.61" style="stop-color:#E10892"/><stop offset="0.64" style="stop-color:#D31399"/><stop offset="0.67" style="stop-color:#BF23A4"/><stop offset="0.69" style="stop-color:#A537B1"/><stop offset="0.71" style="stop-color:#8450C2"/><stop offset="0.74" style="stop-color:#5F6DD5"/><stop offset="0.75" style="stop-color:#4184E5"/></radialGradient><path style="fill:url(#SVGID_1_);" d="M233.3,19.2c4.9,0,8.8,4,8.8,8.8v197.8c0,4.9-4,8.8-8.8,8.8H35.4c-4.9,0-8.8-4-8.8-8.8V28 c0-4.9,4-8.8,8.8-8.8l0,0L233.3,19.2 M233.3,0H35.4c-15.5,0-28,12.5-28,28v197.9c0,15.5,12.5,28,28,28h197.9c15.5,0,28-12.5,28-28 V28C261.3,12.5,248.7,0,233.3,0z"/></g></svg>