<?xml version="1.0" encoding="utf-8"?>
<!-- Generator: Adobe Illustrator 26.2.0, SVG Export Plug-In . SVG Version: 6.00 Build 0)  -->
<svg version="1.2" baseProfile="tiny" id="Layer_1" xmlns="http://www.w3.org/2000/svg" xmlns:xlink="http://www.w3.org/1999/xlink"
	 x="0px" y="0px" viewBox="0 0 1280 1280" overflow="visible" xml:space="preserve">
<path fill="#FFFFFF" d="M589,559V243c0,0-1-13,11-13c9,0,67.64,0,82,0c14,0,11,15,11,15v415.45c0,0,2,6.55-20,20.55s-26,16-40,10
	S356,574,356,574s-12-10-8-22s21-54,26-66s25-6,25-6L589,559z"/>
<path fill="#FFFFFF" d="M1219.5,640c0-322.26-261.24-583.5-583.5-583.5S52.5,317.74,52.5,640s261.24,583.5,583.5,583.5
	c73.98,0,144.73-13.78,209.85-38.89C877.96,1198.99,913.54,1207,951,1207c142.21,0,257.5-115.29,257.5-257.5
	c0-39.06-8.71-76.08-24.27-109.24C1207.05,777.8,1219.5,710.36,1219.5,640z M739.36,1096.19c-32.16,7.08-65.57,10.81-99.86,10.81
	C384.07,1107,177,899.93,177,644.5S384.07,182,639.5,182S1102,389.07,1102,644.5c0,30.9-3.04,61.09-8.82,90.3
	C1052.44,707.76,1003.56,692,951,692c-142.21,0-257.5,115.29-257.5,257.5C693.5,1004.01,710.46,1054.56,739.36,1096.19z M1032,1099
	H872v-61h160c0,0,37-26,37-69s-37-58-37-58H879v57l-101-98l101-98v68h151c0,0,102,21,102,130S1032,1099,1032,1099z"/>
</svg>
